<svg xmlns="http://www.w3.org/2000/svg" viewBox="0 0 640 420" role="img" aria-label="Bagelle Parris Vargas logo dark">
  <rect width="640" height="420" fill="#0F2F4D"/>
  <g transform="translate(220 18) scale(1.45)">
    <path d="M 96.5 48.5 C 93 28, 71 8.5, 48 12.5 C 26.5 16.5, 14 36, 22.5 56 C 30.5 74, 52 89.5, 72.5 85 C 84 82.5, 91.5 71, 88 60.5 C 85 50.5, 75 44, 66 47.5 C 59 50, 55.5 58, 58.5 65 C 61 71.5, 68.5 73.5, 73.5 69.5" fill="none" stroke="#FFFEF7" stroke-width="8.5" stroke-linecap="round" stroke-linejoin="round"/>
    <path d="M 23.5 71.5 C 27 92, 49 111.5, 72 107.5 C 93.5 103.5, 106 84, 97.5 64 C 89.5 46, 68 30.5, 47.5 35 C 36 37.5, 28.5 49, 32 59.5 C 35 69.5, 45 76, 54 72.5 C 61 70, 64.5 62, 61.5 55" fill="none" stroke="#E8A0B0" stroke-width="8.5" stroke-linecap="round" stroke-linejoin="round"/>
  </g>
  <text x="320" y="242" text-anchor="middle" fill="#FFFEF7" font-family="Georgia, 'Times New Roman', serif" font-size="54" font-weight="500" letter-spacing="-0.01em">Bagelle Parris Vargas</text>
  <g transform="translate(320 278)">
    <line x1="-204" y1="0" x2="-132" y2="0" stroke="#E8A0B0" stroke-width="1.6"/>
    <line x1="132" y1="0" x2="204" y2="0" stroke="#E8A0B0" stroke-width="1.6"/>
    <text x="0" y="5" text-anchor="middle" fill="#FFFEF7" font-family="Inter, Helvetica, Arial, sans-serif" font-size="12.5" font-weight="600" letter-spacing="0.24em">ADVISORY &amp; PROFESSIONAL SERVICES</text>
  </g>
  <g transform="translate(320 308)">
    <line x1="-168" y1="0" x2="-88" y2="0" stroke="#FFFEF7" stroke-width="1.2"/>
    <line x1="88" y1="0" x2="168" y2="0" stroke="#FFFEF7" stroke-width="1.2"/>
    <text x="0" y="5" text-anchor="middle" fill="#E8A0B0" font-family="Inter, Helvetica, Arial, sans-serif" font-size="11" font-weight="600" letter-spacing="0.28em">AN ARM OF BAGELTECH</text>
  </g>
</svg>
