<svg xmlns="http://www.w3.org/2000/svg" viewBox="0 0 440 360" role="img" aria-label="BDB Labs logo">
  <rect width="440" height="360" fill="#FFFEF7"/>
  <!-- Icon centered top -->
  <g transform="translate(110 18) scale(1.05)">
    <path d="M 100 20 A 80 80 0 0 0 100 180 L 100 140 A 40 40 0 0 1 100 60 Z" fill="#0F2F4D"/>
    <path d="M 100 20 A 80 80 0 0 1 100 180 L 100 140 A 40 40 0 0 0 100 60 Z" fill="#7B1D2F"/>
    <circle cx="100" cy="100" r="62" fill="none" stroke="#FFFEF7" stroke-width="3"/>
    <circle cx="100" cy="100" r="38" fill="none" stroke="#FFFEF7" stroke-width="3"/>
    <circle cx="100" cy="100" r="17" fill="#FFFEF7"/>
    <g stroke="#0F2F4D" stroke-width="1.3">
      <path d="M 20 100 H 180"/><path d="M 100 20 V 180"/>
    </g>
    <path d="M 100 83 A 17 17 0 0 1 117 100 L 100 100 Z" fill="#7B1D2F"/>
    <path d="M 100 83 A 17 17 0 0 0 83 100 L 100 100 Z" fill="#0F2F4D"/>
    <path d="M 83 100 A 17 17 0 0 0 100 117 L 100 100 Z" fill="#0F2F4D"/>
    <path d="M 117 100 A 17 17 0 0 1 100 117 L 100 100 Z" fill="#7B1D2F"/>
    <rect x="99.1" y="20" width="1.8" height="160" fill="#FFFEF7"/>
  </g>
  <!-- Text BDBLabs -->
  <text x="220" y="270" text-anchor="middle" font-family="Inter, Helvetica, Arial, sans-serif" font-size="78" font-weight="800" letter-spacing="-0.03em">
    <tspan fill="#0F2F4D">BDB</tspan><tspan fill="#7B1D2F">Labs</tspan>
  </text>
  <!-- RESEARCH with lines -->
  <g transform="translate(220 298)">
    <line x1="-150" y1="0" x2="-42" y2="0" stroke="#0F2F4D" stroke-width="1.4"/>
    <line x1="42" y1="0" x2="150" y2="0" stroke="#0F2F4D" stroke-width="1.4"/>
    <text x="0" y="6" text-anchor="middle" fill="#0F2F4D" font-family="Inter, Helvetica, Arial, sans-serif" font-size="18" font-weight="600" letter-spacing="0.38em">RESEARCH</text>
  </g>
</svg>
